<?xml version="1.0" encoding="UTF-8" standalone="no"?>
<!DOCTYPE svg PUBLIC "-//W3C//DTD SVG 1.1//EN" "http://www.w3.org/Graphics/SVG/1.1/DTD/svg11.dtd">
<svg xmlns="http://www.w3.org/2000/svg" version="1.1" viewBox="0.00 0.00 800.00 800.00">
  <defs>
    <linearGradient id="colorGradient" x1="0%" y1="0%" x2="0%" y2="100%">
      <stop offset="0%" style="stop-color:#39ec26; stop-opacity:1" />
      <stop offset="100%" style="stop-color:#39ec26; stop-opacity:1" />
    </linearGradient>
  </defs>
<path stroke="#011403" stroke-width="2.00" fill="none" stroke-linecap="butt" vector-effect="non-scaling-stroke" d="
  M 319.85 549.20
  L 219.17 717.48
  A 0.38 0.38 0.0 0 0 219.74 717.97
  L 470.29 510.33
  A 0.59 0.58 30.7 0 0 470.02 509.31
  L 377.22 489.88
  A 0.68 0.68 0.0 0 1 376.92 488.70
  Q 409.39 461.13 441.90 433.14
  Q 443.76 431.54 446.25 431.81
  C 519.48 439.59 586.46 395.70 624.25 336.05
  A 1.01 1.01 0.0 0 0 623.90 334.63
  L 573.54 306.17
  A 1.15 1.14 -57.3 0 1 573.18 304.50
  Q 574.01 303.34 574.85 301.86
  Q 602.81 252.29 630.72 202.70
  C 636.25 192.90 634.36 178.79 622.77 174.33
  C 613.80 170.87 603.45 176.63 599.02 184.48
  Q 570.21 235.60 541.51 286.55
  Q 540.86 287.71 539.70 287.05
  L 422.90 221.10
  A 1.34 1.33 29.5 0 1 422.39 219.28
  Q 450.72 168.93 478.94 118.50
  C 484.84 107.96 484.17 94.30 472.03 89.28
  C 465.55 86.60 458.36 88.85 453.23 93.10
  Q 449.89 95.88 444.71 105.07
  Q 418.52 151.57 392.32 198.06
  Q 391.22 200.02 390.10 201.70
  A 0.79 0.79 0.0 0 1 389.05 201.95
  L 343.97 176.52
  A 1.85 1.85 0.0 0 0 341.40 177.32
  C 309.80 241.93 307.18 322.86 353.91 381.58
  A 1.21 1.21 0.0 0 1 353.79 383.23
  L 186.22 540.20
  A 0.65 0.62 -64.0 0 0 186.57 541.31
  L 319.43 548.41
  A 0.52 0.52 0.0 0 1 319.85 549.20"
/>
  <path fill="url(#colorGradient)" d="
    M 319.85 549.20
    A 0.52 0.52 0.0 0 1 319.43 548.41
    L 186.57 541.31
    A 0.65 0.62 -64.0 0 0 186.22 540.20
    L 353.79 383.23
    A 1.21 1.21 0.0 0 1 353.91 381.58
    C 307.18 322.86 309.80 241.93 341.40 177.32
    A 1.85 1.85 0.0 0 0 343.97 176.52
    L 389.05 201.95
    A 0.79 0.79 0.0 0 1 390.10 201.70
    Q 391.22 200.02 392.32 198.06
    Q 418.52 151.57 444.71 105.07
    Q 449.89 95.88 453.23 93.10
    C 458.36 88.85 465.55 86.60 472.03 89.28
    C 484.17 94.30 484.84 107.96 478.94 118.50
    Q 450.72 168.93 422.39 219.28
    A 1.34 1.33 29.5 0 0 422.90 221.10
    L 539.70 287.05
    Q 540.86 287.71 541.51 286.55
    Q 570.21 235.60 599.02 184.48
    C 603.45 176.63 613.80 170.87 622.77 174.33
    C 634.36 178.79 636.25 192.90 630.72 202.70
    Q 602.81 252.29 574.85 301.86
    Q 574.01 303.34 573.18 304.50
    A 1.15 1.14 -57.3 0 0 573.54 306.17
    L 623.90 334.63
    A 1.01 1.01 0.0 0 1 624.25 336.05
    C 586.46 395.70 519.48 439.59 446.25 431.81
    Q 443.76 431.54 441.90 433.14
    Q 409.39 461.13 376.92 488.70
    A 0.68 0.68 0.0 0 0 377.22 489.88
    L 470.02 509.31
    A 0.59 0.58 30.7 0 1 470.29 510.33
    L 219.74 717.97
    A 0.38 0.38 0.0 0 1 219.17 717.48
    L 319.85 549.20
    Z"
  />
</svg>
